<svg width="40" height="41" viewBox="0 0 40 41" fill="none" xmlns="http://www.w3.org/2000/svg">
<rect width="40" height="40.0771" rx="8" fill="#F9AA01"/>
<path d="M31.2143 7.01343H9.78013C8.79799 7.01343 8 7.82414 8 8.81936V30.2557C8 31.2509 8.79799 32.0616 9.78013 32.0616H31.2143C32.1964 32.0616 33 31.2509 33 30.2557V8.81936C33 7.82414 32.1964 7.01343 31.2143 7.01343ZM15.5558 28.4833H11.8504V16.5295H15.5614V28.4833H15.5558ZM13.7031 14.8969C12.5145 14.8969 11.5547 13.9296 11.5547 12.7443C11.5547 11.559 12.5145 10.5917 13.7031 10.5917C14.8862 10.5917 15.8516 11.559 15.8516 12.7443C15.8516 13.9352 14.8917 14.8969 13.7031 14.8969ZM29.4453 28.4833H25.74V22.6685C25.74 21.2819 25.7121 19.4984 23.8147 19.4984C21.8839 19.4984 21.5882 21.008 21.5882 22.5679V28.4833H17.8828V16.5295H21.4375V18.1621H21.4877C21.9844 17.2228 23.1953 16.2332 24.9978 16.2332C28.7478 16.2332 29.4453 18.71 29.4453 21.9305V28.4833Z" fill="#1B1426"/>
</svg>
